<svg id="visual" viewBox="0 0 900 600" width="900" height="600" xmlns="http://www.w3.org/2000/svg" xmlns:xlink="http://www.w3.org/1999/xlink" version="1.1"><rect x="0" y="0" width="900" height="600" fill="#140021"></rect><path d="M0 333L90 333L90 232L180 232L180 212L270 212L270 423L360 423L360 227L450 227L450 262L540 262L540 180L630 180L630 435L720 435L720 302L810 302L810 220L900 220L900 377L900 601L900 601L810 601L810 601L720 601L720 601L630 601L630 601L540 601L540 601L450 601L450 601L360 601L360 601L270 601L270 601L180 601L180 601L90 601L90 601L0 601Z" fill="#9900ff"></path><path d="M0 335L90 335L90 504L180 504L180 460L270 460L270 290L360 290L360 336L450 336L450 286L540 286L540 360L630 360L630 299L720 299L720 439L810 439L810 317L900 317L900 379L900 601L900 601L810 601L810 601L720 601L720 601L630 601L630 601L540 601L540 601L450 601L450 601L360 601L360 601L270 601L270 601L180 601L180 601L90 601L90 601L0 601Z" fill="#7700c6"></path><path d="M0 541L90 541L90 485L180 485L180 504L270 504L270 520L360 520L360 417L450 417L450 560L540 560L540 552L630 552L630 561L720 561L720 428L810 428L810 479L900 479L900 536L900 601L900 601L810 601L810 601L720 601L720 601L630 601L630 601L540 601L540 601L450 601L450 601L360 601L360 601L270 601L270 601L180 601L180 601L90 601L90 601L0 601Z" fill="#560090"></path></svg>